<svg width="70" height="70" viewBox="0 0 70 70" fill="none" xmlns="http://www.w3.org/2000/svg">
<path d="M69.1778 31.3255C71.0656 50.2856 57.2257 67.1861 38.2657 69.0739C19.3056 70.9617 2.40507 57.1219 0.517272 38.1618C-1.37052 19.2017 12.4693 2.30118 31.4294 0.413392C50.3894 -1.4744 67.29 12.3654 69.1778 31.3255Z" fill="white"/>
<path fill-rule="evenodd" clip-rule="evenodd" d="M38.1666 68.0788C56.5771 66.2457 70.0158 49.8351 68.1827 31.4246C66.3496 13.0141 49.939 -0.424603 31.5284 1.40847C13.1179 3.24155 -0.320722 19.6522 1.51235 38.0627C3.34543 56.4732 19.7561 69.9119 38.1666 68.0788ZM38.2657 69.0739C57.2258 67.1861 71.0656 50.2856 69.1778 31.3255C67.29 12.3654 50.3894 -1.4744 31.4294 0.413392C12.4693 2.30118 -1.37052 19.2017 0.517272 38.1618C2.40507 57.1219 19.3056 70.9617 38.2657 69.0739Z" fill="#344BCE"/>
<path d="M21.9083 44.5739L20.6221 44.7019L23.3336 34.1998L24.6 34.0737L29.329 43.835L28.0428 43.9631L24.166 35.7357L24.0868 35.7436L21.9083 44.5739ZM21.9892 40.5689L27.1738 40.0527L27.2822 41.141L22.0976 41.6572L21.9892 40.5689Z" fill="#344BCE"/>
<path d="M30.9072 43.6779L29.8984 33.5462L31.0659 33.4299L31.4383 37.1699L31.5372 37.1601C31.6099 37.0196 31.7118 36.8396 31.8432 36.62C31.9775 36.3968 32.1801 36.1901 32.4509 35.9999C32.7248 35.8061 33.109 35.6846 33.6037 35.6353C34.2436 35.5716 34.8235 35.6754 35.3434 35.9468C35.8634 36.2181 36.2895 36.6336 36.6217 37.1934C36.9539 37.7532 37.1597 38.4322 37.2392 39.2303C37.3193 40.0351 37.2519 40.7462 37.0369 41.3639C36.8216 41.9782 36.4877 42.4711 36.035 42.8426C35.582 43.2107 35.039 43.4264 34.4057 43.4894C33.9176 43.538 33.5187 43.4961 33.2091 43.3637C32.8992 43.2281 32.6547 43.0642 32.4757 42.8722C32.2964 42.6769 32.1569 42.5142 32.0574 42.3843L31.9189 42.398L32.0351 43.5656L30.9072 43.6779ZM31.6766 39.7642C31.7338 40.3381 31.8683 40.836 32.0801 41.2579C32.2917 41.6765 32.5714 41.9933 32.9192 42.2085C33.2667 42.4204 33.6747 42.503 34.143 42.4564C34.6311 42.4078 35.0256 42.2386 35.3265 41.9488C35.6304 41.6555 35.8429 41.2812 35.9642 40.8262C36.0884 40.3675 36.1235 39.8677 36.0697 39.3268C36.0165 38.7925 35.8861 38.3192 35.6785 37.9069C35.4739 37.4909 35.1942 37.174 34.8394 36.9562C34.4876 36.7348 34.0643 36.6487 33.5696 36.6979C33.0947 36.7452 32.7076 36.9053 32.4084 37.1783C32.1088 37.4479 31.8979 37.8053 31.7757 38.2505C31.6532 38.6924 31.6201 39.1969 31.6766 39.7642Z" fill="#344BCE"/>
<path d="M39.4014 42.8321L38.6448 35.2333L39.7728 35.121L39.887 36.2688L39.9662 36.2609C40.0673 35.8711 40.2876 35.5411 40.627 35.2708C40.9665 35.0005 41.3638 34.8427 41.8189 34.7974C41.9047 34.7889 42.012 34.7798 42.141 34.7703C42.27 34.7608 42.3677 34.7561 42.4344 34.7561L42.5526 35.9434C42.512 35.9375 42.4198 35.9317 42.276 35.926C42.1352 35.9167 41.9873 35.9198 41.8323 35.9352C41.4629 35.972 41.1408 36.0823 40.866 36.2662C40.5942 36.4465 40.3876 36.6802 40.2464 36.9674C40.1081 37.251 40.056 37.5643 40.0901 37.9073L40.5689 42.7159L39.4014 42.8321Z" fill="#344BCE"/>
<path d="M44.5848 42.316L43.8282 34.7172L44.9957 34.601L45.7523 42.1998L44.5848 42.316ZM44.2957 33.3917C44.0682 33.4143 43.8642 33.3564 43.6839 33.2178C43.5068 33.0789 43.4075 32.9006 43.3858 32.6829C43.3641 32.4652 43.4264 32.2708 43.5725 32.0997C43.722 31.9283 43.9105 31.8313 44.1381 31.8086C44.3657 31.7859 44.568 31.8441 44.745 31.983C44.9254 32.1216 45.0264 32.2997 45.048 32.5174C45.0697 32.7351 45.0058 32.9296 44.8563 33.101C44.7102 33.2721 44.5233 33.369 44.2957 33.3917Z" fill="#344BCE"/>
<path d="M47.8907 41.9869L47.1341 34.3881L48.262 34.2758L48.3763 35.4235L48.4555 35.4156C48.5565 35.0259 48.7768 34.6958 49.1163 34.4255C49.4558 34.1553 49.8531 33.9975 50.3082 33.9521C50.394 33.9436 50.5013 33.9346 50.6303 33.9251C50.7592 33.9156 50.857 33.9108 50.9236 33.9109L51.0418 35.0982C51.0013 35.0922 50.9091 35.0864 50.7653 35.0807C50.6245 35.0714 50.4766 35.0745 50.3216 35.0899C49.9522 35.1267 49.6301 35.2371 49.3553 35.421C49.0835 35.6013 48.8769 35.835 48.7356 36.1222C48.5973 36.4057 48.5453 36.719 48.5794 37.062L49.0582 41.8706L47.8907 41.9869Z" fill="#344BCE"/>
<path d="M37.9838 27.259L36.5941 23.7227L28.0293 27.7301L24.5914 20.3826L33.1563 16.3752L31.3318 13.0423L34.4839 11.5674L44.1791 15.6957L41.1358 25.7842L37.9838 27.259ZM40.1568 25.4474L43.027 16.2347L34.1151 12.5349L36.2142 16.4547L27.7363 20.4215L30.0146 25.2908L38.4925 21.3241L40.1568 25.4474Z" fill="#344BCE"/>
</svg>
