<?xml version="1.0" encoding="UTF-8"?>
<svg id="Layer_2" data-name="Layer 2" xmlns="http://www.w3.org/2000/svg" viewBox="0 0 600 206.38">
  <defs>
    <style>
      .cls-1 {
        fill: #04193a;
        stroke-width: 0px;
      }
    </style>
  </defs>
  <g id="Camada_1" data-name="Camada 1">
    <g>
      <g>
        <path class="cls-1" d="m37.79,194.05H0V4.02h121.79v35.11H37.52v46.91h75.03v34.04H37.79v73.98Z"/>
        <path class="cls-1" d="m268.86,49.32l-33.71,10.19c-1.45-7.15-4.89-13.4-10.33-18.76-5.43-5.36-13.68-8.04-24.74-8.04-8.88,0-16.13,2.37-21.75,7.1-5.62,4.74-8.43,10.41-8.43,17.02,0,11.44,6.97,18.58,20.93,21.44l26.92,5.09c17.03,3.22,30.26,9.97,39.69,20.24,9.42,10.28,14.13,22.2,14.13,35.78,0,15.73-6.3,29.44-18.89,41.14-12.6,11.71-29.49,17.56-50.7,17.56-12.14,0-23.11-1.79-32.89-5.36-9.79-3.57-17.67-8.35-23.65-14.34-5.98-5.99-10.65-12.33-14-19.03-3.36-6.7-5.39-13.62-6.12-20.77l34.8-9.11c.72,10.01,4.71,18.45,11.96,25.33,7.25,6.88,17.31,10.32,30.18,10.32,9.96,0,17.67-2.15,23.11-6.44,5.43-4.29,8.15-9.92,8.15-16.89,0-5.53-2.04-10.32-6.12-14.34-4.08-4.02-9.83-6.75-17.26-8.18l-26.92-5.36c-15.59-3.22-27.91-9.52-36.97-18.9-9.06-9.38-13.59-21.22-13.59-35.51,0-16.62,6.61-30.69,19.84-42.22C165.74,5.76,181.51,0,199.81,0c21.02,0,37.11,4.96,48.25,14.87,11.15,9.92,18.08,21.4,20.79,34.44Z"/>
        <path class="cls-1" d="m289.79,4.02h69.32c18.31,0,32.67,4.78,43.09,14.34,10.42,9.56,15.63,21.84,15.63,36.85,0,9.65-2.58,18.18-7.75,25.6-5.16,7.42-11.92,12.46-20.25,15.14,9.61,2.15,17.67,7.37,24.2,15.68,6.52,8.31,9.78,18.09,9.78,29.35,0,15.55-5.43,28.28-16.31,38.2-10.88,9.92-25.29,14.87-43.23,14.87h-74.49V4.02Zm36.97,78.53h26.64c8.7,0,15.45-2.1,20.25-6.3,4.8-4.2,7.21-10.05,7.21-17.56s-2.36-13.31-7.07-17.43c-4.71-4.11-11.6-6.16-20.66-6.16h-26.37v47.44Zm0,80.68h30.45c9.24,0,16.4-2.19,21.47-6.57,5.07-4.38,7.61-10.41,7.61-18.09s-2.49-13.84-7.48-18.49c-4.99-4.64-12.01-6.97-21.07-6.97h-30.99v50.12Z"/>
      </g>
      <rect class="cls-1" x="469.13" y="194.17" width="130.87" height="12.21" rx=".66" ry=".66"/>
    </g>
  </g>
</svg>